[Header]                  # Header keywords are followed by a single value
FileType htr              # single word string
DataType HTRS             # Hierarchical translations followed by rotations and Scale
FileVersion 1             # integer
NumSegments   22        # integer
NumFrames  5          # integer
DataFrameRate    60      # integer
EulerRotationOrder ZYX    # one word string
CalibrationUnits mm   # one word string
RotationUnits Degrees     # one word string
GlobalAxisofGravity Y        # character, X or Y or Z
BoneLengthAxis Y
ScaleFactor 1.0000
[SegmentNames&Hierarchy]
#CHILD         PARENT
LowerTorso	GLOBAL
MidTorso1	LowerTorso
MidTorso2	MidTorso1
UpperTorso	MidTorso2
Neck	UpperTorso
Head	Neck
LCollar	UpperTorso
LUpArm	LCollar
LLowArm	LUpArm
LHand	LLowArm
RCollar	UpperTorso
RUpArm	RCollar
RLowArm	RUpArm
RHand	RLowArm
RThigh	LowerTorso
RLowLeg	RThigh
RFoot	RLowLeg
RToe	RFoot
LThigh	LowerTorso
LLowLeg	LThigh
LFoot	LLowLeg
LToe	LFoot
[BasePosition]
#SegmentName Tx, Ty, Tz, Rx, Ry, Rz, BoneLength
LowerTorso	245.857281	950.546486	248.637529	3.098927	-0.002210	0.042162	59.711333	
MidTorso1	0.000000	59.711333	0.000000	12.937915	-0.002675	-0.030860	59.789096	
MidTorso2	0.000000	59.789096	0.000000	-8.588562	0.003459	0.011437	83.428957	
UpperTorso	0.000000	83.428957	0.000000	-7.932331	-0.001012	-0.030752	241.957510	
Neck	0.000000	241.957510	0.000000	-0.094097	0.000027	0.097203	231.829248	
Head	0.000000	231.829248	0.000000	90.077927	-0.000108	-0.089730	91.574582	
LCollar	6.813599	237.360039	0.023153	2.387721	-0.015547	-90.013255	183.371476	
LUpArm	0.000000	183.371476	0.000000	5.326590	-0.698152	6.338799	275.550262	
LLowArm	0.000000	275.550262	0.000000	0.023606	-0.000027	0.019344	209.826044	
LHand	0.000000	209.826044	0.000000	0.056212	0.000012	-0.012212	145.298309	
RCollar	-7.320367	237.102711	-0.039007	12.450709	0.004248	90.115141	167.861514	
RUpArm	0.000000	167.861514	0.000000	-6.122028	-0.820027	-2.646363	291.470253	
RLowArm	0.000000	291.470253	0.000000	0.000001	0.000000	-0.000274	217.757286	
RHand	0.000000	217.757286	0.000000	0.000373	0.000000	0.000511	137.536656	
RThigh	-124.450736	-52.205152	84.621319	5.924306	0.309605	177.207098	421.029795	
RLowLeg	0.000000	421.029795	0.000000	-15.759515	-0.017515	3.120486	365.105663	
RFoot	0.000000	365.105663	0.000000	55.897303	0.149984	-4.373210	148.323736	
RToe	0.000000	148.323736	0.000000	45.100933	2.167436	3.449341	115.306227	
LThigh	124.374466	-52.388373	84.621456	5.928259	-0.221338	-178.140447	426.796764	
LLowLeg	0.000000	426.796764	0.000000	-15.759694	0.017551	-3.120303	361.153822	
LFoot	0.000000	361.153822	0.000000	55.897848	-0.150027	4.373120	146.718976	
LToe	0.000000	146.718976	0.000000	45.100748	-2.167253	-3.449489	114.060784	
#Beginning of Data. Separated by tabs
[LowerTorso]
#Fr     Tx      Ty      Tz      Rx      Ry      Rz      SF
856	-28.512791	-65.348862	606.030090	-13.450109	65.463486	-15.482685	1.000000	
857	-31.166956	-62.120922	579.074768	-10.739244	62.431049	-13.490443	1.000000	
858	-33.518013	-58.553673	553.252441	-8.364545	59.311672	-11.741632	1.000000	
859	-36.031483	-56.725822	530.424377	-7.216303	56.702271	-10.782217	1.000000	
860	-35.820332	-53.394569	508.658020	-6.036078	54.041313	-9.710093	1.000000	
[MidTorso1]
#Fr     Tx      Ty      Tz      Rx      Ry      Rz      SF
856	0.000000	0.000000	0.000000	4.940989	-1.908184	-1.644116	1.000000	
857	0.000000	0.000000	0.000000	5.257179	-1.915048	-1.717743	1.000000	
858	0.000000	0.000000	0.000000	5.528965	-1.985180	-1.841003	1.000000	
859	0.000000	0.000000	0.000000	6.143423	-2.312711	-1.886994	1.000000	
860	0.000000	0.000000	0.000000	6.253504	-2.430649	-1.919464	1.000000	
[MidTorso2]
#Fr     Tx      Ty      Tz      Rx      Ry      Rz      SF
856	0.000000	0.000000	0.000000	4.940692	-1.642327	-1.910497	1.000000	
857	0.000000	0.000000	0.000000	5.256540	-1.638191	-1.984310	1.000000	
858	0.000000	0.000000	0.000000	5.527964	-1.689197	-2.116643	1.000000	
859	0.000000	0.000000	0.000000	6.143677	-2.006320	-2.211040	1.000000	
860	0.000000	0.000000	0.000000	6.254180	-2.118113	-2.260764	1.000000	
[UpperTorso]
#Fr     Tx      Ty      Tz      Rx      Ry      Rz      SF
856	0.000000	0.000000	0.000000	4.939351	-1.360396	-2.118406	1.000000	
857	0.000000	0.000000	0.000000	5.254798	-1.345954	-2.190900	1.000000	
858	0.000000	0.000000	0.000000	5.525693	-1.378082	-2.328960	1.000000	
859	0.000000	0.000000	0.000000	6.142194	-1.678832	-2.466141	1.000000	
860	0.000000	0.000000	0.000000	6.252923	-1.782642	-2.530799	1.000000	
[Neck]
#Fr     Tx      Ty      Tz      Rx      Ry      Rz      SF
856	0.000000	0.000000	0.000000	-26.779701	-40.391666	17.437731	1.000000	
857	0.000000	0.000000	0.000000	-29.476028	-37.998859	17.976524	1.000000	
858	0.000000	0.000000	0.000000	-31.425039	-35.644947	17.638826	1.000000	
859	0.000000	0.000000	0.000000	-34.936588	-33.573681	17.826801	1.000000	
860	0.000000	0.000000	0.000000	-34.797337	-32.242767	15.417201	1.000000	
[Head]
#Fr     Tx      Ty      Tz      Rx      Ry      Rz      SF
856	0.000000	0.000000	0.000000	15.500464	12.520254	2.910120	1.000000	
857	0.000000	0.000000	0.000000	17.275085	12.918662	3.388355	1.000000	
858	0.000000	0.000000	0.000000	18.478279	13.079630	3.672625	1.000000	
859	0.000000	0.000000	0.000000	17.526228	13.083901	3.164523	1.000000	
860	0.000000	0.000000	0.000000	17.357487	12.931252	3.005300	1.000000	
[LCollar]
#Fr     Tx      Ty      Tz      Rx      Ry      Rz      SF
856	0.000000	0.000000	0.000000	7.792239	1.197321	-8.681643	1.000000	
857	0.000000	0.000000	0.000000	8.870800	1.339466	-8.518064	1.000000	
858	0.000000	0.000000	0.000000	9.931711	1.421566	-8.064098	1.000000	
859	0.000000	0.000000	0.000000	5.075545	0.674230	-7.546853	1.000000	
860	0.000000	0.000000	0.000000	5.936257	0.766398	-7.330030	1.000000	
[LUpArm]
#Fr     Tx      Ty      Tz      Rx      Ry      Rz      SF
856	0.000000	0.000000	0.000000	20.012194	35.370228	-53.625137	1.000000	
857	0.000000	0.000000	0.000000	20.616919	33.811203	-53.659832	1.000000	
858	0.000000	0.000000	0.000000	21.204634	32.353508	-53.556496	1.000000	
859	0.000000	0.000000	0.000000	29.481714	33.039227	-49.094276	1.000000	
860	0.000000	0.000000	0.000000	30.122252	31.814718	-48.551662	1.000000	
[LLowArm]
#Fr     Tx      Ty      Tz      Rx      Ry      Rz      SF
856	0.000000	0.000000	0.000000	108.253548	-0.011647	-0.016206	1.000000	
857	0.000000	0.000000	0.000000	109.665504	-0.011548	-0.016493	1.000000	
858	0.000000	0.000000	0.000000	111.472939	-0.011410	-0.016856	1.000000	
859	0.000000	0.000000	0.000000	110.364319	-0.011496	-0.016634	1.000000	
860	0.000000	0.000000	0.000000	112.165359	-0.011354	-0.016994	1.000000	
[LHand]
#Fr     Tx      Ty      Tz      Rx      Ry      Rz      SF
856	0.000000	0.000000	0.000000	12.129024	8.314642	2.797152	1.000000	
857	0.000000	0.000000	0.000000	12.201995	8.979426	3.365904	1.000000	
858	0.000000	0.000000	0.000000	12.165071	9.820542	4.133589	1.000000	
859	0.000000	0.000000	0.000000	12.763820	6.818801	4.644031	1.000000	
860	0.000000	0.000000	0.000000	12.324683	7.572877	5.229954	1.000000	
[RCollar]
#Fr     Tx      Ty      Tz      Rx      Ry      Rz      SF
856	0.000000	0.000000	0.000000	1.385021	-0.464277	18.530205	1.000000	
857	0.000000	0.000000	0.000000	1.856069	-0.634371	18.864508	1.000000	
858	0.000000	0.000000	0.000000	2.167237	-0.758801	19.288643	1.000000	
859	0.000000	0.000000	0.000000	4.491018	-1.364366	16.865217	1.000000	
860	0.000000	0.000000	0.000000	4.673518	-1.460900	17.321449	1.000000	
[RUpArm]
#Fr     Tx      Ty      Tz      Rx      Ry      Rz      SF
856	0.000000	0.000000	0.000000	39.237862	21.779127	36.472424	1.000000	
857	0.000000	0.000000	0.000000	38.783039	18.555872	36.252575	1.000000	
858	0.000000	0.000000	0.000000	38.793186	14.351384	35.870674	1.000000	
859	0.000000	0.000000	0.000000	36.566658	10.610852	38.640984	1.000000	
860	0.000000	0.000000	0.000000	36.381435	5.475636	38.065331	1.000000	
[RLowArm]
#Fr     Tx      Ty      Tz      Rx      Ry      Rz      SF
856	0.000000	0.000000	0.000000	116.272644	0.000173	0.000215	1.000000	
857	0.000000	0.000000	0.000000	113.316071	0.000176	0.000207	1.000000	
858	0.000000	0.000000	0.000000	109.419678	0.000179	0.000197	1.000000	
859	0.000000	0.000000	0.000000	110.810555	0.000178	0.000201	1.000000	
860	0.000000	0.000000	0.000000	105.964699	0.000180	0.000187	1.000000	
[RHand]
#Fr     Tx      Ty      Tz      Rx      Ry      Rz      SF
856	0.000000	0.000000	0.000000	-2.469069	7.602137	-14.807676	1.000000	
857	0.000000	0.000000	0.000000	-2.346322	6.656573	-13.646040	1.000000	
858	0.000000	0.000000	0.000000	-2.418112	5.276850	-12.716089	1.000000	
859	0.000000	0.000000	0.000000	-5.807559	-0.009129	-16.522446	1.000000	
860	0.000000	0.000000	0.000000	-6.252648	-1.928494	-16.440378	1.000000	
[RThigh]
#Fr     Tx      Ty      Tz      Rx      Ry      Rz      SF
856	0.000000	0.000000	0.000000	15.277273	-11.922750	-20.804731	1.000000	
857	0.000000	0.000000	0.000000	18.588194	-11.287156	-21.165115	1.000000	
858	0.000000	0.000000	0.000000	21.736134	-8.729403	-20.451122	1.000000	
859	0.000000	0.000000	0.000000	24.131184	-4.360342	-18.255610	1.000000	
860	0.000000	0.000000	0.000000	26.179392	0.510514	-15.396971	1.000000	
[RLowLeg]
#Fr     Tx      Ty      Tz      Rx      Ry      Rz      SF
856	0.000000	0.000000	0.000000	-10.657080	0.000008	-0.000002	1.000000	
857	0.000000	0.000000	0.000000	-9.520934	0.000007	-0.000002	1.000000	
858	0.000000	0.000000	0.000000	-9.204978	0.000007	-0.000002	1.000000	
859	0.000000	0.000000	0.000000	-10.754397	0.000008	-0.000002	1.000000	
860	0.000000	0.000000	0.000000	-13.217505	0.000010	-0.000003	1.000000	
[RFoot]
#Fr     Tx      Ty      Tz      Rx      Ry      Rz      SF
856	0.000000	0.000000	0.000000	-21.451864	16.859831	1.089380	1.000000	
857	0.000000	0.000000	0.000000	-25.779787	14.520351	-1.225419	1.000000	
858	0.000000	0.000000	0.000000	-28.297260	11.381531	-2.807394	1.000000	
859	0.000000	0.000000	0.000000	-27.145727	8.761063	-3.325749	1.000000	
860	0.000000	0.000000	0.000000	-24.314281	7.172185	-3.244229	1.000000	
[RToe]
#Fr     Tx      Ty      Tz      Rx      Ry      Rz      SF
856	0.000000	0.000000	0.000000	4.943974	0.000002	0.000002	1.000000	
857	0.000000	0.000000	0.000000	4.395715	0.000002	0.000002	1.000000	
858	0.000000	0.000000	0.000000	3.647855	0.000001	0.000002	1.000000	
859	0.000000	0.000000	0.000000	2.488387	0.000001	0.000001	1.000000	
860	0.000000	0.000000	0.000000	0.909889	0.000000	0.000000	1.000000	
[LThigh]
#Fr     Tx      Ty      Tz      Rx      Ry      Rz      SF
856	0.000000	0.000000	0.000000	9.751329	11.528741	13.812434	1.000000	
857	0.000000	0.000000	0.000000	10.592653	6.966273	12.813458	1.000000	
858	0.000000	0.000000	0.000000	11.387446	3.218975	11.683730	1.000000	
859	0.000000	0.000000	0.000000	11.957314	2.185601	10.951232	1.000000	
860	0.000000	0.000000	0.000000	12.022825	-0.545307	9.821675	1.000000	
[LLowLeg]
#Fr     Tx      Ty      Tz      Rx      Ry      Rz      SF
856	0.000000	0.000000	0.000000	-32.928570	0.000015	-0.000005	1.000000	
857	0.000000	0.000000	0.000000	-33.454094	0.000015	-0.000005	1.000000	
858	0.000000	0.000000	0.000000	-33.765808	0.000015	-0.000005	1.000000	
859	0.000000	0.000000	0.000000	-34.764843	0.000016	-0.000005	1.000000	
860	0.000000	0.000000	0.000000	-34.503727	0.000016	-0.000005	1.000000	
[LFoot]
#Fr     Tx      Ty      Tz      Rx      Ry      Rz      SF
856	0.000000	0.000000	0.000000	7.726998	-6.115533	1.845997	1.000000	
857	0.000000	0.000000	0.000000	7.874334	-4.598775	2.398775	1.000000	
858	0.000000	0.000000	0.000000	7.677870	-3.756674	2.882788	1.000000	
859	0.000000	0.000000	0.000000	10.457255	-8.254230	-0.302114	1.000000	
860	0.000000	0.000000	0.000000	10.129851	-7.906877	0.420936	1.000000	
[LToe]
#Fr     Tx      Ty      Tz      Rx      Ry      Rz      SF
856	0.000000	0.000000	0.000000	8.953755	0.000035	0.000001	1.000000	
857	0.000000	0.000000	0.000000	8.844344	0.000034	0.000001	1.000000	
858	0.000000	0.000000	0.000000	8.807376	0.000034	0.000001	1.000000	
859	0.000000	0.000000	0.000000	6.649247	0.000026	0.000000	1.000000	
860	0.000000	0.000000	0.000000	6.525700	0.000025	0.000000	1.000000	
[EndOfFile]
